<svg width="31" height="37" viewBox="0 0 31 37" fill="none" xmlns="http://www.w3.org/2000/svg">
<path d="M27.125 14.9766C27.125 24.0182 15.5 31.7682 15.5 31.7682C15.5 31.7682 3.875 24.0182 3.875 14.9766C3.875 11.8934 5.09977 8.93656 7.27988 6.75645C9.45999 4.57634 12.4169 3.35156 15.5 3.35156C18.5831 3.35156 21.54 4.57634 23.7201 6.75645C25.9002 8.93656 27.125 11.8934 27.125 14.9766Z" stroke="#131313" stroke-width="3.88398" stroke-linecap="round" stroke-linejoin="round"/>
<path d="M15.5 18.8516C17.6401 18.8516 19.375 17.1167 19.375 14.9766C19.375 12.8365 17.6401 11.1016 15.5 11.1016C13.3599 11.1016 11.625 12.8365 11.625 14.9766C11.625 17.1167 13.3599 18.8516 15.5 18.8516Z" stroke="#131313" stroke-width="3.88398" stroke-linecap="round" stroke-linejoin="round"/>
</svg>
